<svg width="32" height="32" viewBox="18 10 70 62" fill="none" xmlns="http://www.w3.org/2000/svg">
  <!-- Radar dot -->
  <path d="M72.8188 66.583C75.9857 64.3658 76.7553 60.001 74.5379 56.8341C72.3204 53.6673 67.9556 52.8976 64.7888 55.1151C61.6219 57.3325 60.8523 61.6974 63.0697 64.8642C65.2872 68.031 69.652 68.801 72.8188 66.583Z" fill="#5090ff"/>
  <!-- Arc 1 -->
  <path d="M50.9732 61.0142C50.9732 58.1205 51.6708 55.2694 53.007 52.7027C54.3431 50.1359 56.2784 47.9292 58.6488 46.2694C61.0192 44.6097 63.7548 43.5459 66.6237 43.1682C69.4926 42.7904 72.4103 43.11 75.1295 44.0997" stroke="#5090ff" stroke-width="5" stroke-linecap="round"/>
  <!-- Arc 2 -->
  <path d="M36.9732 61.0142C36.826 55.6513 37.9481 50.403 40.2444 45.7141C42.5407 41.0251 45.9435 37.0338 50.1643 34.0783C54.3851 31.1229 59.2996 29.2904 64.4911 28.7363C69.6827 28.1822 74.9983 28.9228 79.9873 30.8953" stroke="#5090ff" stroke-width="6" stroke-linecap="round"/>
  <!-- Arc 3 -->
  <path d="M20.9732 61.0141C20.8125 53.0886 22.5367 45.3187 25.9997 38.3629C29.4627 31.4071 34.5625 25.4705 40.8666 21.0562C47.1708 16.642 54.4936 13.8803 62.2144 13.0051C69.9351 12.1299 77.8262 13.1672 85.219 16.0289" stroke="#5090ff" stroke-width="7" stroke-linecap="round"/>
</svg>
